#!OML:ASF F:\VICON\USERDATA\INSTALL\rory3\rory3.ASF
:FULLY-SPECIFIED
:DEGREES
222
root 0.95145 17.6419 9.84054 -1.76477 2.38529 3.48611
lowerback 7.13039 -1.40934 -6.23092
upperback 0.445771 -2.31682 1.68895
thorax -3.221 -1.05421 5.49176
lowerneck -16.2355 -2.82579 -1.27429
upperneck 17.8779 -3.64805 0.356825
head 8.25883 -1.77789 -0.100966
rclavicle -7.30534e-015 -4.77083e-015
rhumerus -35.483 -13.6222 -78.8769
rradius 30.3573
rwrist 2.71196
rhand -13.223 18.2046
rfingers 7.12502
rthumb 12.8782 -11.3781
lclavicle -7.30534e-015 -4.77083e-015
lhumerus -30.1016 -6.38653 80.3311
lradius 38.4158
lwrist 5.06425
lhand -24.1483 32.2026
lfingers 7.12502
lthumb 2.33416 62.1696
rfemur -30.1338 4.78746 16.6987
rtibia 19.1998
rfoot -10.2525 -11.1614
rtoes -13.3447
lfemur 14.3262 -3.22973 -28.199
ltibia 18.0363
lfoot -19.6343 -1.02146
ltoes -19.2217
223
root 0.929134 17.6389 10.0488 -1.85762 2.70537 3.49513
lowerback 6.87738 -1.53021 -6.28604
upperback 0.581737 -2.46343 1.68171
thorax -2.91481 -1.14216 5.51328
lowerneck -16.3686 -2.78877 -1.31002
upperneck 17.8841 -3.59969 0.422191
head 8.28625 -1.74998 -0.0696283
rclavicle -1.02623e-014 -3.18055e-015
rhumerus -35.2657 -14.4205 -78.5319
rradius 29.3366
rwrist 3.18869
rhand -13.217 20.3042
rfingers 7.12502
rthumb 12.884 -9.27807
lclavicle -1.02623e-014 -3.18055e-015
lhumerus -29.9572 -6.13157 80.3012
lradius 38.1914
lwrist 4.93263
lhand -22.4829 32.4756
lfingers 7.12502
lthumb 3.94247 62.4189
rfemur -30.069 4.62891 16.8732
rtibia 20.608
rfoot -10.1519 -10.5841
rtoes -13.9033
lfemur 15.2618 -3.59988 -28.1748
ltibia 18.2842
lfoot -19.5441 -0.994976
ltoes -20.5269
224
root 0.907491 17.6314 10.2545 -1.93045 2.97004 3.62171
lowerback 6.76127 -1.64775 -6.45995
upperback 0.574431 -2.62669 1.66289
thorax -2.8276 -1.22483 5.60011
lowerneck -16.512 -2.75587 -1.31485
upperneck 18.1205 -3.54497 0.377875
head 8.3902 -1.72771 -0.0813057
rclavicle 4.94477e-015 -1.03368e-014
rhumerus -35.2842 -14.9194 -78.2319
rradius 28.5856
rwrist 3.67232
rhand -13.4178 22.6032
rfingers 7.12502
rthumb 12.6905 -6.99122
lclavicle 4.94477e-015 -1.03368e-014
lhumerus -30.2487 -6.0738 80.3694
lradius 38.0804
lwrist 4.99523
lhand -22.3017 32.9277
lfingers 7.12502
lthumb 4.11742 62.8676
rfemur -30.0403 4.42237 16.9598
rtibia 22.0452
rfoot -10.0728 -9.91577
rtoes -13.7899
lfemur 16.0432 -3.90472 -28.2799
ltibia 18.4121
lfoot -19.0993 -1.12701
ltoes -22.764
225
root 0.887036 17.6311 10.4658 -1.94071 3.20471 3.81308
lowerback 6.6391 -1.73107 -6.70129
upperback 0.431845 -2.75187 1.65105
thorax -2.87941 -1.27835 5.73267
lowerneck -16.34 -2.81685 -1.4351
upperneck 18.2202 -3.60055 0.368041
head 8.39587 -1.76403 -0.0699727
rclavicle 2.15433e-014 -1.27222e-014
rhumerus -35.7687 -15.1873 -77.8654
rradius 28.5143
rwrist 3.98696
rhand -13.4539 23.2131
rfingers 7.12502
rthumb 12.6556 -6.38348
lclavicle 2.15433e-014 -1.27222e-014
lhumerus -30.7787 -6.03686 80.5853
lradius 37.9722
lwrist 4.90564
lhand -22.7522 33.613
lfingers 7.12502
lthumb 3.68238 63.5609
rfemur -29.9824 4.06695 17.0405
rtibia 23.3267
rfoot -9.97543 -9.19506
rtoes -13.1203
lfemur 16.5993 -4.14827 -28.4289
ltibia 18.7226
lfoot -18.6222 -1.46375
ltoes -23.4958
226
root 0.861146 17.647 10.6781 -2.00449 3.38946 3.51203
lowerback 6.54291 -1.79248 -6.50905
upperback 0.371803 -2.81128 1.75767
thorax -2.88308 -1.30821 5.73758
lowerneck -16.185 -2.89918 -1.37163
upperneck 18.2594 -3.70597 0.238241
head 8.37836 -1.8237 -0.134396
rclavicle 8.4235e-015 -3.18055e-015
rhumerus -36.053 -15.4225 -77.6575
rradius 28.4941
rwrist 4.04281
rhand -13.3279 22.7519
rfingers 7.12502
rthumb 12.7771 -6.8371
lclavicle 8.4235e-015 -3.18055e-015
lhumerus -30.9896 -6.02909 80.7433
lradius 37.6744
lwrist 4.69048
lhand -23.0972 32.9757
lfingers 7.12502
lthumb 3.34923 62.9291
rfemur -29.8381 4.16257 17.5169
rtibia 24.3729
rfoot -8.87467 -9.0336
rtoes -13.1219
lfemur 17.1808 -4.44842 -28.026
ltibia 19.1991
lfoot -18.0603 -1.66191
ltoes -24.6069
227
root 0.83054 17.6657 10.8794 -2.05326 3.5043 2.84543
lowerback 6.57996 -1.84361 -5.93963
upperback 0.309733 -2.83497 1.93815
thorax -2.98299 -1.32112 5.60993
lowerneck -16.2635 -2.93544 -1.22421
upperneck 18.4653 -3.76739 0.108537
head 8.45655 -1.85507 -0.21257
rclavicle 1.91082e-014 -4.77083e-015
rhumerus -36.2131 -15.5859 -77.5627
rradius 28.3436
rwrist 4.05557
rhand -13.3429 22.4596
rfingers 7.12502
rthumb 12.7627 -7.13037
lclavicle 1.91082e-014 -4.77083e-015
lhumerus -31.1098 -6.01998 80.8767
lradius 37.2739
lwrist 4.63151
lhand -23.4245 31.9968
lfingers 7.12502
lthumb 3.03319 61.9549
rfemur -29.7531 4.5256 18.2936
rtibia 25.1529
rfoot -7.30468 -9.33076
rtoes -13.4644
lfemur 17.6997 -4.80285 -27.2095
ltibia 19.7998
lfoot -17.3546 -1.47274
ltoes -29.2438
